<?xml version="1.0" encoding="UTF-8" standalone="no"?>
<svg
   xmlns:dc="http://purl.org/dc/elements/1.1/"
   xmlns:cc="http://creativecommons.org/ns#"
   xmlns:rdf="http://www.w3.org/1999/02/22-rdf-syntax-ns#"
   xmlns:svg="http://www.w3.org/2000/svg"
   xmlns="http://www.w3.org/2000/svg"
   xmlns:sodipodi="http://sodipodi.sourceforge.net/DTD/sodipodi-0.dtd"
   xmlns:inkscape="http://www.inkscape.org/namespaces/inkscape"
   width="415.37054mm"
   height="322.51862mm"
   viewBox="0 0 415.37056 322.51862"
   version="1.1"
   id="svg8"
   inkscape:version="1.0.1 (3bc2e813f5, 2020-09-07)"
   sodipodi:docname="fullthing.svg">
  <defs
     id="defs2" />
  <sodipodi:namedview
     id="base"
     pagecolor="#ffffff"
     bordercolor="#666666"
     borderopacity="1.0"
     inkscape:pageopacity="0.0"
     inkscape:pageshadow="2"
     inkscape:zoom="0.35"
     inkscape:cx="574.79838"
     inkscape:cy="522.90768"
     inkscape:document-units="mm"
     inkscape:current-layer="layer1"
     inkscape:document-rotation="0"
     showgrid="false"
     inkscape:window-width="1267"
     inkscape:window-height="730"
     inkscape:window-x="83"
     inkscape:window-y="0"
     inkscape:window-maximized="0" />
  <metadata
     id="metadata5">
    <rdf:RDF>
      <cc:Work
         rdf:about="">
        <dc:format>image/svg+xml</dc:format>
        <dc:type
           rdf:resource="http://purl.org/dc/dcmitype/StillImage" />
        <dc:title></dc:title>
      </cc:Work>
    </rdf:RDF>
  </metadata>
  <g
     inkscape:label="Layer 1"
     inkscape:groupmode="layer"
     id="layer1"
     transform="translate(-0.62031532,-9.8140091)">
    <path
       style="fill:none;stroke:#000000;stroke-width:6.7;stroke-linecap:round;stroke-linejoin:miter;stroke-miterlimit:4;stroke-dasharray:none;stroke-opacity:1"
       d="m 71.706334,58.44222 c 4.32441,15.935373 6.353127,32.526657 24.190476,44.60119 -8.320574,10.425 -15.256951,22.78788 -33.261903,19.65476"
       id="path1466"
       sodipodi:nodetypes="ccc" />
    <path
       style="fill:none;stroke:#000000;stroke-width:6.7;stroke-linecap:round;stroke-linejoin:miter;stroke-miterlimit:4;stroke-dasharray:none;stroke-opacity:1"
       d="M 46.759907,67.51365 C 31.071895,63.124423 16.121053,62.78963 4.4265745,80.364839 3.6411269,85.057643 2.9267031,89.736241 11.986096,92.460077 30.686547,88.20699 42.1704,79.830133 46.759907,67.51365 Z"
       id="path1468"
       sodipodi:nodetypes="cccc" />
    <path
       style="fill:none;stroke:#000000;stroke-width:6.7;stroke-linecap:round;stroke-linejoin:miter;stroke-miterlimit:4;stroke-dasharray:none;stroke-opacity:1"
       d="M 87.581334,53.150554 C 96.035783,44.157005 112.64849,33.464272 120.08728,51.63865 v 0 c -11.63021,6.068229 -22.873597,9.428687 -32.505946,1.511904 z"
       id="path1470"
       sodipodi:nodetypes="cccc" />
    <path
       style="fill:none;stroke:#000000;stroke-width:6.7;stroke-linecap:round;stroke-linejoin:miter;stroke-miterlimit:4;stroke-dasharray:none;stroke-opacity:1"
       d="m 14.253953,170.32317 c 49.583604,41.89863 102.335527,77.30975 193.523807,34.01786 l 101.29762,-69.54762 c 60.82364,-51.629189 39.09176,110.63545 58.20833,167.06547 13.58545,53.40221 29.92741,13.08324 45.35714,3.77977"
       id="path1472"
       sodipodi:nodetypes="ccccc" />
    <path
       style="fill:none;stroke:#000000;stroke-width:6.7;stroke-linecap:round;stroke-linejoin:miter;stroke-miterlimit:4;stroke-dasharray:none;stroke-opacity:1"
       d="m 215.33728,76.585077 c -12.825,16.44878 -26.50286,33.055503 -12.85119,44.601193 5.5084,5.82915 11.89103,8.74419 20.41072,4.53571 10.0011,-1.42504 9.5988,-8.05179 9.82738,-14.36309 1.64391,-10.48136 -5.18395,-9.31403 -11.33928,-9.07143 v 0"
       id="path1474"
       sodipodi:nodetypes="cccccc" />
    <path
       style="fill:none;stroke:#000000;stroke-width:6.7;stroke-linecap:round;stroke-linejoin:miter;stroke-miterlimit:4;stroke-dasharray:none;stroke-opacity:1"
       d="m 191.90276,72.049362 c -11.80032,-16.11575 -21.08153,-2.002151 -30.99405,4.535715 11.0873,9.812131 22.17461,16.464537 33.26191,8.315476 3.35342,-4.28373 8.0126,-8.567461 -2.26786,-12.851191 z"
       id="path1476"
       sodipodi:nodetypes="cccc" />
    <path
       style="fill:none;stroke:#000000;stroke-width:6.7;stroke-linecap:round;stroke-linejoin:miter;stroke-miterlimit:4;stroke-dasharray:none;stroke-opacity:1"
       d="m 257.67062,80.364839 c 10.09066,-8.782728 21.25793,-14.066489 39.30952,3.023809 0,0 20.41072,35.529762 -39.30952,-3.023809 z"
       id="path1478"
       sodipodi:nodetypes="ccc" />
    <path
       style="fill:none;stroke:#000000;stroke-width:6.7;stroke-linecap:round;stroke-linejoin:miter;stroke-miterlimit:4;stroke-dasharray:none;stroke-opacity:1"
       d="m 111.77181,175.61484 c -2.14414,7.78172 -1.36946,13.37431 4.53571,15.11904"
       id="path1480"
       sodipodi:nodetypes="cc" />
    <path
       style="fill:none;stroke:#000000;stroke-width:6.7;stroke-linecap:round;stroke-linejoin:miter;stroke-miterlimit:4;stroke-dasharray:none;stroke-opacity:1"
       d="m 163.17657,190.73388 c -8.16322,-6.80357 -4.38319,-13.60714 -0.75595,-20.41071"
       id="path1482"
       sodipodi:nodetypes="cc" />
    <path
       style="fill:none;stroke:#000000;stroke-width:6.7;stroke-linecap:round;stroke-linejoin:miter;stroke-miterlimit:4;stroke-dasharray:none;stroke-opacity:1"
       d="m 137.47419,168.81127 c -3.81814,13.10317 -6.29339,26.20635 3.77976,39.30952"
       id="path1484"
       sodipodi:nodetypes="cc" />
    <path
       style="fill:none;stroke:#000000;stroke-width:6.7;stroke-linecap:round;stroke-linejoin:miter;stroke-miterlimit:4;stroke-dasharray:none;stroke-opacity:1"
       d="m 213.82538,19.132696 c 1.60713,13.27678 -17.59174,16.150557 -35.52976,19.654763 30.3878,13.173754 64.91647,30.291192 54.42857,4.535713 C 222.67953,6.5475631 217.90795,10.198911 213.82538,19.132696 Z"
       id="path1486"
       sodipodi:nodetypes="cccc" />
    <path
       style="fill:none;stroke:#000000;stroke-width:5.66522;stroke-linecap:round;stroke-linejoin:miter;stroke-miterlimit:4;stroke-dasharray:none;stroke-opacity:1"
       d="m 247.73124,256.98818 c 4.76683,-15.51685 11.29062,-30.84052 5.71563,-47.49449 10.15322,-6.40173 20.34459,-14.97909 30.23095,-6.15936"
       id="path1488"
       sodipodi:nodetypes="ccc" />
    <path
       style="fill:none;stroke:#000000;stroke-width:5.66522;stroke-linecap:round;stroke-linejoin:miter;stroke-miterlimit:4;stroke-dasharray:none;stroke-opacity:1"
       d="m 267.73772,257.37199 c 7.8337,9.14906 17.10931,14.47227 32.75439,2.89524 2.70285,-3.87716 5.35422,-7.76566 0.91945,-13.21595 -13.79932,-2.53545 -24.98503,0.99508 -33.67384,10.32071 z"
       id="path1490"
       sodipodi:nodetypes="cccc" />
    <path
       style="fill:none;stroke:#000000;stroke-width:5.66522;stroke-linecap:round;stroke-linejoin:miter;stroke-miterlimit:4;stroke-dasharray:none;stroke-opacity:1"
       d="m 235.22611,256.31941 c -9.56441,5.09349 -25.0754,8.94295 -21.22042,-9.59709 v 0 c 10.19218,-1.444 18.86669,-0.62853 21.22042,9.59709 z"
       id="path1492"
       sodipodi:nodetypes="cccc" />
  </g>
</svg>
